<svg xmlns="http://www.w3.org/2000/svg" width="37.236" height="50" viewBox="0 0 37.236 50"><defs><style>.a{fill:#fff;}</style></defs><g transform="translate(-461.107 -3746.732)"><path class="a" d="M479.641,3748.791a16.426,16.426,0,0,0-15.822,11.08,12.941,12.941,0,0,0,.6,10.292c1.589,3.165,3.379,6.229,5.075,9.34q.966,1.773,1.9,3.563c.361.691.231,1.252-.321,1.545s-1.08.061-1.452-.612c-2.043-3.7-4.105-7.387-6.135-11.094a17.978,17.978,0,0,1-2.243-6.422,15.814,15.814,0,0,1,1.836-9.877,18.153,18.153,0,0,1,13.45-9.6,18.605,18.605,0,0,1,20.955,12.367,14.8,14.8,0,0,1-.734,11.64c-1.5,3.02-3.213,5.931-4.828,8.892-.759,1.391-1.508,2.788-2.26,4.183a1.021,1.021,0,0,1-1.069.633.908.908,0,0,1-.845-.831,1.622,1.622,0,0,1,.221-.863c1.486-2.722,3.009-5.424,4.486-8.151a54.338,54.338,0,0,0,2.721-5.318,13.6,13.6,0,0,0-1.3-13.081,16.475,16.475,0,0,0-11.585-7.562,7.311,7.311,0,0,0-.964-.115C480.767,3748.778,480.2,3748.791,479.641,3748.791Z"/><path class="a" d="M483.924,3772.642c-.547.22-1,.375-1.42.588a.619.619,0,0,0-.273.448c-.065,1.216-.262,1.464-1.476,1.534a22.8,22.8,0,0,1-2.4-.014c-.793-.039-1.16-.419-1.119-1.208.027-.512-.118-.783-.625-.907a7.131,7.131,0,0,1-1.009-.41c-.23.214-.46.439-.7.65a.815.815,0,0,1-1.163.045c-.822-.762-1.626-1.548-2.383-2.374a.871.871,0,0,1,.141-1.323c.53-.438.636-.863.225-1.413a.361.361,0,0,1-.057-.142c-.1-.56-.4-.756-.988-.712a.951.951,0,0,1-1.1-1.006,26.666,26.666,0,0,1-.005-2.952c.045-.774.4-1.085,1.158-1.038.557.034.861-.146.964-.684a.261.261,0,0,1,.033-.1.949.949,0,0,0-.246-1.483.825.825,0,0,1-.071-1.241c.744-.814,1.526-1.6,2.339-2.343a.877.877,0,0,1,1.324.129.862.862,0,0,0,1.335.2.24.24,0,0,1,.1-.033c.593-.1.825-.418.77-1.049a.928.928,0,0,1,.965-1.081,28.465,28.465,0,0,1,3.007,0,.934.934,0,0,1,.984,1.114.817.817,0,0,0,.749,1.021.348.348,0,0,1,.144.05c.527.394.916.248,1.327-.233a.891.891,0,0,1,1.365-.089c.766.7,1.509,1.426,2.205,2.192a.923.923,0,0,1-.1,1.48c-.474.4-.544.755-.182,1.228a.125.125,0,0,1,.023.046.935.935,0,0,0,1.188.877.874.874,0,0,1,.982.894c.042,1.051.049,2.106,0,3.157a.939.939,0,0,1-1.1.949c-.57-.045-.908.106-.992.693a.233.233,0,0,1-.04.093,1.031,1.031,0,0,0,.207,1.563.828.828,0,0,1,.025,1.283,27.55,27.55,0,0,1-2.108,2.145c-.61.55-1.06.485-1.649-.1A4.039,4.039,0,0,1,483.924,3772.642Zm4.064-8.14c-.141,0-.226,0-.31,0-.949.044-1.233-.183-1.494-1.091a8.593,8.593,0,0,0-.57-1.524c-.636-1.246-.653-1.236.238-2.295a.2.2,0,0,0,.026-.078l-.618-.745c-.254.236-.42.409-.605.558a1.082,1.082,0,0,1-1.2.13q-1.258-.542-2.539-1.035a1,1,0,0,1-.718-.949c-.011-.249-.025-.5-.038-.757h-.923c-.013.148-.028.264-.032.38-.032.932-.216,1.12-1.1,1.394a11.719,11.719,0,0,0-1.879.77c-.779.4-1.094.4-1.725-.205-.1-.093-.2-.182-.361-.332l-.687.707c.124.137.2.225.28.309.655.685.675.979.219,1.806a5.185,5.185,0,0,0-.618,1.392c-.22,1.065-.668,1.755-1.92,1.482v1.033c.185.014.334.03.484.036.836.034,1.09.265,1.325,1.068a6.753,6.753,0,0,0,.619,1.611c.657,1.082.658,1.428-.251,2.3-.018.018-.012.061-.019.106.1.107.2.222.311.328s.221.2.341.3c.165-.158.307-.3.461-.439a1.084,1.084,0,0,1,1.4-.167c.753.344,1.523.653,2.3.936a1.112,1.112,0,0,1,.843,1.03c.016.23.026.461.04.7h.921c.007-.135.014-.234.016-.333.016-1.015.166-1.183,1.124-1.461a8.5,8.5,0,0,0,1.519-.58c1.268-.651,1.259-.667,2.284.276.02.018.06.015-.005,0l.76-.618c-.106-.117-.182-.207-.263-.292-.656-.685-.668-.961-.208-1.8a8.994,8.994,0,0,0,.7-1.583c.4-1.273.418-1.311,1.753-1.381.03,0,.058-.027.113-.055Z"/><path class="a" d="M479.7,3796.732a6.714,6.714,0,0,1-5.115-2.457.776.776,0,0,0-.733-.337,4.2,4.2,0,0,1-.716,0,1.6,1.6,0,0,1-1.554-1.317c-.26-1.214-.5-2.434-.69-3.661a1.605,1.605,0,0,1,1.718-1.955q7.114-.006,14.23,0a1.656,1.656,0,0,1,1.712,2.1c-.219,1.119-.424,2.241-.649,3.359a1.64,1.64,0,0,1-1.794,1.465,1.755,1.755,0,0,0-1.527.649A6.6,6.6,0,0,1,479.7,3796.732Zm-6.779-7.7.549,2.89a6.426,6.426,0,0,0,.738,0,1.7,1.7,0,0,1,1.742.869,4.373,4.373,0,0,0,3.957,1.92,4.5,4.5,0,0,0,3.706-2.119,1.294,1.294,0,0,1,1.227-.67c.355.023.712,0,1.1,0l.544-2.89Z"/><path class="a" d="M478.755,3765.337c1-.949,2-1.906,3-2.851a1.028,1.028,0,0,1,1.668.084.916.916,0,0,1-.146,1.216q-1.95,1.889-3.932,3.743a.931.931,0,0,1-1.341-.03q-.992-.962-1.93-1.979a.968.968,0,0,1,.03-1.383.991.991,0,0,1,1.424.02C477.933,3764.526,478.317,3764.913,478.755,3765.337Z"/></g></svg>