<svg xmlns="http://www.w3.org/2000/svg" width="62.553" height="70" viewBox="0 0 62.553 70"><defs><style>.a{fill:#10a1bb;}</style></defs><g transform="translate(-1135.312 -1327.301)"><path class="a" d="M1191.527,1349.6v4.231c.533-.353,1-.632,1.424-.964a.735.735,0,0,0,.175-.52c.013-1.567.008-3.133.008-4.741h2.035v3.775l1.556-1.015,1.14,1.687-3.12,2.1c-.979.659-1.962,1.312-2.933,1.983a.637.637,0,0,0-.278.407c-.024.965-.012,1.93-.012,3l3.309-2.022,1.076,1.728c-.433.274-.834.531-1.239.781-.918.567-1.83,1.148-2.764,1.689a.7.7,0,0,0-.39.718c.018,1.1-.048,2.2.024,3.3a25.586,25.586,0,0,0,.416,2.591,23.753,23.753,0,0,1,.316,5.26,24.357,24.357,0,0,1-3.368,11.323,24.742,24.742,0,0,1-13.48,11.042,23.883,23.883,0,0,1-9.413,1.293,24.877,24.877,0,0,1-21.9-33.592.45.45,0,0,0-.127-.6,10.541,10.541,0,0,1-3.246-6.184c-.248-1.231-.354-2.49-.517-3.687a13.564,13.564,0,0,1-2.092-.463,4.542,4.542,0,0,1-2.8-4.71,4.637,4.637,0,0,1,3.35-3.931.63.63,0,0,0,.49-.466,4.366,4.366,0,0,1,8.186-.028.661.661,0,0,0,.428.356,4.6,4.6,0,0,1,.194,9.079.522.522,0,0,1-.2.025,2.353,2.353,0,0,0-1.929.689c-.1.07-.215.193-.215.291a6.386,6.386,0,0,0,1.271,4.1c.913-1.051,1.748-2.134,2.713-3.087,1.039-1.025,2.2-1.923,3.3-2.89a.825.825,0,0,0,.305-.5c.019-2.567.012-5.134.01-7.7a1.059,1.059,0,0,0-.036-.182,4.48,4.48,0,0,1-4.189-.678,4.282,4.282,0,0,1-1.68-2.79,4.478,4.478,0,0,1,4.579-5.174,5.47,5.47,0,0,1,1.461-2.871,5.1,5.1,0,0,1,8.344,1.641.852.852,0,0,0,.651.565,2.917,2.917,0,0,1,1.936,4.018.948.948,0,0,0-.041.633,4.077,4.077,0,0,1-4.694,5.474,3.02,3.02,0,0,0-.31-.028,1.8,1.8,0,0,0-.036.254c0,1.332,0,2.664,0,4.025.906-.242,1.767-.533,2.65-.7,1.318-.241,2.649-.423,3.982-.562.445-.046.552-.173.551-.594q-.018-9.5-.008-19v-.686h2.036v.552q0,9.552-.01,19.1c0,.468.1.649.6.624a12.748,12.748,0,0,1,1.523.1v-.6c0-4.351.006-8.7-.009-13.053,0-.428.092-.571.548-.567,2.583.022,5.167.011,7.751.011h.5v.627q0,7.975-.008,15.953a.679.679,0,0,0,.419.739,13.086,13.086,0,0,1,1.175.7V1339.7h5.6v.588c0,5.234-.005,10.469.012,15.7a1.639,1.639,0,0,0,.291.848c.85,1.263,1.731,2.506,2.609,3.768,0-.738.018-1.508-.014-2.276-.007-.172-.174-.346-.291-.5-.654-.877-1.316-1.749-2-2.653l1.621-1.233.658.828V1349.6Zm-36.686,22.993H1144.6a.9.9,0,0,0-.035.178,23.84,23.84,0,0,0,.754,5.452,22.928,22.928,0,0,0,7.284,11.569.458.458,0,0,0,.65.023c.985-.614,1.982-1.211,2.995-1.778.586-.328,1.211-.586,1.815-.874C1155.872,1381.459,1155.593,1381.268,1154.841,1372.595Zm.1-2.145a35.422,35.422,0,0,1,3.126-12.715l-5.257-2.912a22.891,22.891,0,0,0-8.17,15.627Zm11.448,2.148h-9.468a33.57,33.57,0,0,0,3.139,13.879,23.578,23.578,0,0,1,5.831-1.03c.429-.018.507-.2.506-.583-.013-3.914-.008-7.828-.008-11.742Zm-.04-2.147v-11.062a23.318,23.318,0,0,1-5.764-.936c-.45-.137-.6-.005-.769.377a34.071,34.071,0,0,0-2.579,9.089c-.118.83-.162,1.67-.243,2.532Zm-12.426-34.391c.049,1.144-.454,1.538-1.544,1.247a2.378,2.378,0,0,0-2.964,2.915,2.335,2.335,0,0,0,3.625,1.3,1.171,1.171,0,0,1,1.74.2,1.914,1.914,0,0,0,2.54.244c.853-.557,1.038-.54,1.808.162a2.013,2.013,0,0,0,2.975-2.679c-.374-.581-.394-.989,0-1.4a.937.937,0,0,0,.289-1.157c-.234-.468-.646-.489-1.108-.433a1.023,1.023,0,0,1-1.254-.955,3.052,3.052,0,0,0-3.213-2.7A3.089,3.089,0,0,0,1153.924,1336.06Zm-10.233,16.219a2.2,2.2,0,0,0,1.788-.838,1.393,1.393,0,0,1,1.34-.458,3.093,3.093,0,0,0,.936-.023,2.565,2.565,0,0,0,1.957-2.7,2.594,2.594,0,0,0-2.687-2.292c-.978.118-1.327-.143-1.485-1.111a2.207,2.207,0,0,0-2.067-2,2.233,2.233,0,0,0-2.48,1.879c-.245,1.065-.259,1.077-1.339,1.241a4.036,4.036,0,0,0-.487.1,2.572,2.572,0,0,0-1.734,3.073,2.505,2.505,0,0,0,2.941,1.834,1.288,1.288,0,0,1,1.38.446A2.343,2.343,0,0,0,1143.691,1352.279Zm32.724,5.6c.557,1.616,1.144,3.265,1.686,4.93a.506.506,0,0,0,.583.432c3.031-.011,6.062-.006,9.093-.008.153,0,.306-.019.522-.033a22.815,22.815,0,0,0-6.3-8.35Zm-7.989,10.959c0,.828-.012,1.544.011,2.259a.517.517,0,0,0,.238.361c.62.34,1.241.685,1.889.965a6.678,6.678,0,0,0,1.493.45,2.715,2.715,0,0,0,2.054-.724,4.636,4.636,0,0,1,3.052-.852,4.866,4.866,0,0,1,2.656,1.013,2.859,2.859,0,0,0,1.755.589,3.061,3.061,0,0,0,1.837-.657,4.759,4.759,0,0,1,3.572-.889,5.289,5.289,0,0,1,2.185.893c.317.21.663.377,1.113.629-.053-.905-.089-1.651-.146-2.4-.008-.106-.1-.279-.183-.293a6.8,6.8,0,0,1-2.3-1.136,2.217,2.217,0,0,0-1.955-.286,8.01,8.01,0,0,0-1.537.778,4.489,4.489,0,0,1-3.575.626,7.332,7.332,0,0,1-2.012-.916,2.88,2.88,0,0,0-2.452-.472,3.694,3.694,0,0,0-1.092.565,4.9,4.9,0,0,1-5.807-.013C1169,1369.162,1168.751,1369.037,1168.426,1368.836Zm0,4.669c0,.822-.012,1.522.012,2.22a.512.512,0,0,0,.253.339c.58.314,1.2.561,1.756.909a2.724,2.724,0,0,0,3.377-.037,4.957,4.957,0,0,1,6.05.022,2.3,2.3,0,0,0,2,.508,5.272,5.272,0,0,0,1.57-.664,4.864,4.864,0,0,1,5.6-.027c.206.135.413.268.633.41a1.758,1.758,0,0,0,.123-.31c.106-.65.2-1.3.292-1.867a11.77,11.77,0,0,1-1.855-.934,3.1,3.1,0,0,0-3.9-.01,4.563,4.563,0,0,1-5.568-.007,3.1,3.1,0,0,0-3.855,0,4.673,4.673,0,0,1-5.663-.027C1169.013,1373.863,1168.76,1373.714,1168.426,1373.505Zm20.08,7.586c.135-.328.276-.642.4-.965.3-.817.3-.818-.433-1.269-.141-.088-.276-.186-.414-.277a2.771,2.771,0,0,0-3.546,0,4.79,4.79,0,0,1-5.922-.01,2.768,2.768,0,0,0-3.542.032,4.781,4.781,0,0,1-5.84,0c-.228-.155-.472-.286-.758-.459v2.381c.768.434,1.469.834,2.175,1.226a3.261,3.261,0,0,0,.669.32,2.791,2.791,0,0,0,2.546-.451,4.9,4.9,0,0,1,2.8-1.041,5,5,0,0,1,3.163,1,2.678,2.678,0,0,0,3.375.093A5,5,0,0,1,1188.506,1381.091Zm-15.861-45.507v12.461l1.5.374V1346.6h1.583v2.028l-.651.05,2.228.855v-13.954Zm-4.2,31.013c.687.367,1.32.654,1.9,1.024a2.858,2.858,0,0,0,3.591-.021,5.667,5.667,0,0,1,.852-.513,4.79,4.79,0,0,1,4.7.327,5.787,5.787,0,0,0,1.4.735,2.571,2.571,0,0,0,2.4-.493,4.919,4.919,0,0,1,5.927-.058,4.861,4.861,0,0,0,.474.291l.115-.088-.662-2.5h-20.69Zm16.648,20.237-.09-.162c-.394.222-.807.416-1.179.67a4.977,4.977,0,0,1-2.837.922,5.083,5.083,0,0,1-3.086-1.086,2.809,2.809,0,0,0-1.574-.529,3.368,3.368,0,0,0-2.055.751,4.681,4.681,0,0,1-5.452.005c-.112-.071-.233-.13-.391-.219,0,.629.031,1.181-.01,1.727a.687.687,0,0,0,.532.841,2.068,2.068,0,0,1,.645.368,2.885,2.885,0,0,0,3.874.027,4.849,4.849,0,0,1,5.634.021,3.506,3.506,0,0,0,1,.542,1.166,1.166,0,0,0,.878.012A21.875,21.875,0,0,0,1185.09,1386.834Zm-16.664-4.047a9.891,9.891,0,0,1-.007,1.09c-.079.656.038,1.16.779,1.338a1.226,1.226,0,0,1,.465.283,2.99,2.99,0,0,0,3.805,0,4.536,4.536,0,0,1,5.607.013,3.107,3.107,0,0,0,3.816-.018,4.433,4.433,0,0,1,3.531-.858.434.434,0,0,0,.349-.171c.3-.472.572-.962.858-1.453a1.094,1.094,0,0,0-.191-.136,2.941,2.941,0,0,0-2.918.358,4.727,4.727,0,0,1-5.868.029,3.218,3.218,0,0,0-2-.616,3.429,3.429,0,0,0-1.8.76,4.752,4.752,0,0,1-5.426.008C1169.121,1383.219,1168.816,1383.034,1168.426,1382.787Zm.035-23.25v3.663h7.548c.009-.08.031-.134.017-.174-.527-1.441-1.061-2.88-1.584-4.322-.1-.268-.244-.214-.465-.172C1172.16,1358.875,1170.34,1359.2,1168.461,1359.537Zm-2.1-10.087a3,3,0,0,0-.6.416c-1.009,1.235-2.04,2.456-2.987,3.739-.653.883-1.184,1.857-1.8,2.832a20.76,20.76,0,0,0,5.389.863Zm-.01,45.8v-7.888l-5.39.891a32.845,32.845,0,0,0,4.878,6.778C1165.942,1395.138,1166.139,1395.16,1166.351,1395.247Zm9.128-39.357a21.673,21.673,0,0,0,4.667-2.439,22.457,22.457,0,0,0-8.6-3.5Zm-2.049.773a33.294,33.294,0,0,0-4.959-6.917v7.667Zm5.249,35.583a13,13,0,0,0-1.839-.858,2.874,2.874,0,0,0-2.552.671,4.616,4.616,0,0,1-4.032.685,10.858,10.858,0,0,1-1.793-.813v3.272A22.835,22.835,0,0,0,1178.679,1392.246Zm-23.962-38.831-.027.182,4.2,2.2,3.842-5.75A22.486,22.486,0,0,0,1154.717,1353.415Zm7.957,41.324c-1.16-1.813-2.336-3.657-3.526-5.492a.38.38,0,0,0-.343-.124c-1.393.681-2.778,1.381-4.269,2.13A22.651,22.651,0,0,0,1162.674,1394.739Zm21.735-40.519v-12.429h-1.386a.551.551,0,0,0-.043.131q-.008,5.4-.006,10.793a.533.533,0,0,0,.12.358C1183.5,1353.451,1183.931,1353.807,1184.409,1354.22Zm-27.282-9.9h-1.77v6.285c.563-.282,1.081-.532,1.586-.805a.4.4,0,0,0,.176-.295C1157.13,1347.772,1157.127,1346.041,1157.127,1344.318Zm-14.73,9.864c.3,2.615.772,5.115,2.7,7.156l.72-1.335a8.205,8.205,0,0,1-2.245-5.613Z"/><path class="a" d="M1181.876,1338.075a2.385,2.385,0,0,1,1.252-2.031c.4-.262.369-.422-.006-.668a2.262,2.262,0,0,1-1.209-1.728,2.184,2.184,0,0,1,.179-1.192c.516-.859,1.147-1.629,2.335-1.5a10.049,10.049,0,0,0,1.072.005,1.682,1.682,0,0,1-.48,1.374c-.334.358-.725.665-1.133,1.031.281.221.539.421.793.627a2.216,2.216,0,0,1,.081,3.4C1183.9,1338.261,1182.92,1338.11,1181.876,1338.075Z"/><path class="a" d="M1150.844,1332.149a3.062,3.062,0,0,0-3.07.932,1.035,1.035,0,0,1-1.294.289,1.067,1.067,0,0,1-.509-1.232,2.4,2.4,0,0,0-.971-2.606l.937-1.77a4.175,4.175,0,0,1,2.03,2.586c.544-.1,1.086-.244,1.636-.3a5.94,5.94,0,0,1,1.291.038c.12.014.326.221.312.311C1151.115,1330.978,1150.973,1331.553,1150.844,1332.149Z"/><path class="a" d="M1137.214,1336.509l-.927-1.775a4.377,4.377,0,0,1,3.289-.174,14.282,14.282,0,0,1,.689-1.55,13.547,13.547,0,0,1,1.005-1.327l1.428,1.53a3.116,3.116,0,0,0-1.074,2.439,4.067,4.067,0,0,0,.1.634,1,1,0,0,1-.468,1.186,1.039,1.039,0,0,1-1.27-.207,2.591,2.591,0,0,0-2.022-.9A5.924,5.924,0,0,0,1137.214,1336.509Z"/><path class="a" d="M1174.165,1339.183h1.6v2.022h-1.6Z"/><path class="a" d="M1174.163,1336.7h1.6v2.025h-1.6Z"/><path class="a" d="M1174.147,1346.127v-2h1.615v2Z"/><path class="a" d="M1174.151,1343.647v-1.955h1.614v1.955Z"/></g></svg>