<svg xmlns="http://www.w3.org/2000/svg" width="50" height="50" viewBox="0 0 50 50"><defs><style>.a{opacity:0.5;}.b{fill:#fff;}</style></defs><g class="a" transform="translate(-452.801 -3900.236)"><path class="b" d="M481.317,3950.236c-.062-.164-.209-.243-.341-.336a2.49,2.49,0,0,1-1.115-2.2c.019-3.221.007-6.442.007-9.663q0-9.223,0-18.447a2.75,2.75,0,0,1,.383-1.635,2.122,2.122,0,0,1,1.834-1.021q9.273,0,18.545,0a2.136,2.136,0,0,1,1.739.927c.129.164.212.372.433.447v30.468a10.233,10.233,0,0,1-1.464,1.465Zm10.016-2.056q4.27,0,8.541,0c.819,0,.87-.049.87-.846q0-8.565,0-17.131c0-.721-.06-.781-.779-.781q-8.565,0-17.131,0c-.8,0-.848.055-.848.872q0,8.541,0,17.082c0,.753.053.8.806.8Q487.063,3948.181,491.333,3948.18Zm-.007-20.877v0q4.367,0,8.733,0c.6,0,.679-.084.683-.679q.009-1.391,0-2.78c0-.575-.085-.659-.648-.666-.748-.01-1.5-.005-2.244-.005q-7.538,0-15.074,0c-.721,0-.785.068-.79.779-.006.829,0,1.659,0,2.488,0,.812.048.863.853.864Q487.081,3927.306,491.326,3927.3Zm0-6.251v0h8.25c1.172,0,1.172,0,1.17-1.181,0-.875-.011-.886-.917-.886H483.183c-1.2,0-1.2,0-1.2,1.195,0,.82.045.868.847.869Q487.078,3921.054,491.326,3921.052Z"/><path class="b" d="M487.958,3900.236c.1.191.3.234.47.33a3.33,3.33,0,0,1,1.873,3.034q0,5.419,0,10.838a3.624,3.624,0,0,1-.014.39,1.04,1.04,0,0,1-1.05,1.009,1.023,1.023,0,0,1-.979-1.072c-.016-1.757-.011-3.515-.012-5.272,0-1.953,0-3.906,0-5.858,0-1.036-.3-1.341-1.342-1.341q-9.887-.006-19.772,0c-.709,0-.765.06-.758.8q.048,5.148.1,10.3a1.5,1.5,0,0,1-.193.938,1.1,1.1,0,0,1-.97.462c-2.734,0-5.467,0-8.2-.006a1.043,1.043,0,0,1-1.157-.995,1.069,1.069,0,0,1,1.176-1.044c2.066-.015,4.133-.008,6.2-.01,1.085,0,1.121,0,1.075-1.106-.1-2.424-.061-4.848-.087-7.272,0-.14.058-.331-.091-.4s-.252.109-.348.2q-4.337,4.329-8.672,8.658a1.35,1.35,0,0,0-.348,1.069q0,12.522,0,25.044,0,3.93,0,7.86c0,1.106.286,1.388,1.393,1.388q10.277,0,20.553,0c.292,0,.585.005.878,0a.971.971,0,0,1,1,.552,1.081,1.081,0,0,1-.2,1.225,2.809,2.809,0,0,0-.2.275H455.145a.635.635,0,0,0-.335-.264,3.716,3.716,0,0,1-1.746-1.744.634.634,0,0,0-.263-.336v-35.644a1.754,1.754,0,0,0,.234-.17q5.662-5.664,11.321-11.333a1.04,1.04,0,0,0,.359-.509Z"/><path class="b" d="M468.1,3924.385a9.5,9.5,0,0,1,.027-1.277.432.432,0,0,1,.482-.483c.146,0,.293-.009.439-.008.924.007,1.194-.13,1.136,1.028-.024.485.308.535.686.535s.688-.05.682-.539c-.008-.667-.013-1.334.005-2,.012-.449-.2-.6-.621-.6a3.6,3.6,0,0,1-3.2-1.9c-1.5-2.491.676-5.15,2.856-5.324.162-.013.325-.012.487-.014a.427.427,0,0,0,.472-.49c0-.277,0-.553.005-.83a2.977,2.977,0,0,1,.008-.341c.083-.683.628-.448.993-.444s.953-.263,1.04.443a8.793,8.793,0,0,1,.015.975c.009.61.075.682.671.688.732.007,1.465.016,2.2,0,.455-.01.651.172.641.635-.018.8-.015,1.594,0,2.392.008.445-.194.626-.623.6-.064,0-.13,0-.2,0-1.123,0-1.135,0-1.244-1.1-.051-.518-.411-.456-.75-.46s-.686-.018-.69.465c-.006.684.006,1.367-.01,2.05-.01.435.172.6.61.614a3.742,3.742,0,0,1,3.34,2.1,3.227,3.227,0,0,1,.4,2.171,3.729,3.729,0,0,1-.989,1.76,3.688,3.688,0,0,1-2.714,1.257c-.478.014-.692.209-.651.684a1.106,1.106,0,0,1,0,.244c-.049.358.183.855-.185,1.045a2.713,2.713,0,0,1-1.626.056c-.2-.029-.234-.248-.236-.434-.005-.31,0-.619-.009-.928-.013-.556-.1-.642-.668-.649-.732-.009-1.465,0-2.2-.008-.544-.009-.606-.1-.589-.644C468.108,3925.254,468.1,3924.863,468.1,3924.385Zm5.516-1.807c0,.373,0,.746,0,1.12a.419.419,0,0,0,.344.46,1.64,1.64,0,0,0,1.666-.547,2.137,2.137,0,0,0,.031-1.913,1.783,1.783,0,0,0-1.689-.641.407.407,0,0,0-.352.45C473.61,3921.864,473.614,3922.221,473.614,3922.578Zm-2.071-5.112h0c0-.373,0-.746,0-1.119a.414.414,0,0,0-.328-.469,1.7,1.7,0,0,0-1.658.581,1.889,1.889,0,0,0,.007,1.939,1.647,1.647,0,0,0,1.659.567.4.4,0,0,0,.316-.428C471.546,3918.18,471.543,3917.823,471.543,3917.466Z"/><path class="b" d="M469.454,3932.543h-7.562c-.719,0-.769-.051-.771-.783-.005-1.447-.116-1.331,1.3-1.331h14.489c.88,0,.892.012.9.905.005,1.213.005,1.211-1.226,1.21Q473.015,3932.541,469.454,3932.543Z"/><path class="b" d="M469.5,3934.611q3.759,0,7.518,0c.731,0,.779.046.78.774,0,1.364.105,1.282-1.254,1.281H462c-.855,0-.874-.02-.878-.875-.006-1.18-.006-1.179,1.156-1.179Z"/><path class="b" d="M469.461,3940.86q-3.783,0-7.567,0c-.726,0-.77-.046-.773-.78-.005-1.406-.066-1.273,1.261-1.273q7.273,0,14.547,0c.85,0,.87.025.873.883,0,1.173,0,1.174-1.165,1.174h-7.176Z"/><path class="b" d="M491.366,3931.486q3.222,0,6.444,0c.743,0,.8.046.8.761q0,6.541,0,13.082c0,.638-.069.708-.7.709q-6.566,0-13.13,0c-.66,0-.72-.064-.721-.738q0-6.54,0-13.082c0-.672.057-.73.723-.731q3.294,0,6.589,0Zm-3.144,6.248v0c.521,0,1.042,0,1.563,0,.34,0,.513-.15.512-.5q0-1.587,0-3.174c0-.342-.154-.513-.5-.512q-1.587,0-3.174,0c-.339,0-.514.154-.514.5q0,1.587,0,3.173c0,.376.189.522.548.517C487.181,3937.728,487.7,3937.734,488.222,3937.734Zm6.277,0c.487,0,.974-.01,1.461,0,.4.012.6-.151.593-.571q-.017-1.534,0-3.068c0-.392-.172-.558-.559-.555q-1.535.011-3.067,0c-.382,0-.572.153-.569.549.008,1.038.007,2.077,0,3.116,0,.366.166.534.533.529C493.428,3937.727,493.964,3937.733,494.5,3937.734Zm-4.2,4.191c0-.535,0-1.071,0-1.606,0-.336-.138-.522-.488-.522H486.6a.424.424,0,0,0-.484.475c0,1.071,0,2.142,0,3.213,0,.346.171.5.512.5q1.582-.006,3.164,0c.379,0,.517-.195.512-.549C490.294,3942.932,490.3,3942.428,490.3,3941.925Zm4.2,2.058c.5,0,1.007,0,1.51,0,.361,0,.541-.151.539-.523q-.009-1.581,0-3.164a.441.441,0,0,0-.508-.5q-1.583,0-3.165,0c-.338,0-.514.151-.514.5q0,1.582,0,3.164c0,.367.17.533.536.527C493.43,3943.976,493.966,3943.982,494.5,3943.983Z"/><path class="b" d="M492.346,3925.216a1,1,0,0,1-1,1.035,1.034,1.034,0,0,1-1.026-1.021,1.049,1.049,0,0,1,1.037-1.016A1.016,1.016,0,0,1,492.346,3925.216Z"/><path class="b" d="M489.219,3925.213a1,1,0,0,1-.995,1.035,1.012,1.012,0,0,1-.045-2.023A.991.991,0,0,1,489.219,3925.213Z"/><path class="b" d="M495.469,3925.242a1,1,0,0,1-1.023,1.007,1.013,1.013,0,0,1,.011-2.026A.994.994,0,0,1,495.469,3925.242Z"/></g></svg>