<svg xmlns="http://www.w3.org/2000/svg" width="70.037" height="50" viewBox="0 0 70.037 50"><defs><style>.a{fill:#10a1bb;}</style></defs><g transform="translate(-1404.223 -1336.051)"><path class="a" d="M1426.979,1345.943c.209-.534.423-1.087.641-1.639a12.232,12.232,0,0,1,2.822-4.33,17.012,17.012,0,0,1,2.384-1.963,11.218,11.218,0,0,1,7.22-1.927,11.842,11.842,0,0,1,5.424,1.813,13.746,13.746,0,0,1,4.26,4.185,13.124,13.124,0,0,1,1.67,3.65c.022.076.056.149.1.266.128-.073.241-.133.349-.2a9.713,9.713,0,0,1,5.044-1.541,10.122,10.122,0,0,1,8.238,3.994,11.331,11.331,0,0,1,2.5,9.049,11.15,11.15,0,0,1-5.443,8.428c-.108.065-.254.224-.236.309.046.219.092.429.411.521a34.748,34.748,0,0,1,6.462,2.442,8.733,8.733,0,0,1,4.7,6.159,26.706,26.706,0,0,1,.664,5.206c.034,1.36.059,2.72.065,4.081a1.446,1.446,0,0,1-1.621,1.6h-66.755a1.459,1.459,0,0,1-1.661-1.651c.032-1.891.028-3.786.171-5.67a17.188,17.188,0,0,1,1.374-5.879,7.81,7.81,0,0,1,3.133-3.387,23.5,23.5,0,0,1,5.826-2.481q.8-.242,1.579-.539a.5.5,0,0,0,.288-.311.469.469,0,0,0-.215-.356,11.119,11.119,0,0,1-5.388-7.7,11.419,11.419,0,0,1,1.547-8.685,10.5,10.5,0,0,1,7.5-5.051,8.593,8.593,0,0,1,5.094.717Zm30.139,37.247c.007-.139.019-.233.016-.325-.055-1.577-.058-3.158-.184-4.73a17.061,17.061,0,0,0-1.062-5.241,6.316,6.316,0,0,0-1.9-2.7,15.141,15.141,0,0,0-3.959-2.237c-1.737-.66-3.507-1.237-5.272-1.821a3.415,3.415,0,0,1-2.307-1.828,8.989,8.989,0,0,1-.709-2.828,1.454,1.454,0,0,1,.921-1.516,12.526,12.526,0,0,0,2.065-1.136,11.466,11.466,0,0,0,.851-17.328,8.709,8.709,0,0,0-8.154-2.383,10.059,10.059,0,0,0-7.389,6.723,10.927,10.927,0,0,0-.358,6.653,10.268,10.268,0,0,0,6.213,7.509,1.393,1.393,0,0,1,.857,1.475c-.077.537-.165,1.073-.284,1.6a3.741,3.741,0,0,1-2.838,3.1c-1.14.3-2.253.705-3.37,1.086a20.381,20.381,0,0,0-4.853,2.276,6.746,6.746,0,0,0-2.12,1.993,12.667,12.667,0,0,0-1.593,5.216c-.17,1.359-.237,2.733-.312,4.1-.042.767-.008,1.54-.008,2.332Zm14.248,0a.612.612,0,0,0,.043-.127,30.923,30.923,0,0,0-.708-7.449,5.059,5.059,0,0,0-2.073-3.342,24.113,24.113,0,0,0-3.2-1.689c-1.346-.559-2.756-.97-4.145-1.424a2.75,2.75,0,0,1-1.554-1.117,5.783,5.783,0,0,1-.839-3.106,1.24,1.24,0,0,1,.781-1.153c.356-.168.729-.306,1.065-.507a8.3,8.3,0,0,0,4.08-6.469,8.541,8.541,0,0,0-2.6-7.534,6.955,6.955,0,0,0-7.148-1.882,8.467,8.467,0,0,0-2.991,1.775.461.461,0,0,0-.1.325,14.793,14.793,0,0,1-2.241,8.1.732.732,0,0,0-.089.518,8.15,8.15,0,0,0,4.853,5.661,1.32,1.32,0,0,1,.831,1.444,9.151,9.151,0,0,1-.328,1.674c-.123.382.018.539.275.758a14.271,14.271,0,0,1,1.757,1.625,12.264,12.264,0,0,1,2.36,5.734,37.416,37.416,0,0,1,.58,7.267c0,.3,0,.592,0,.922Zm-52.868.008c0-.275,0-.5,0-.732a36.532,36.532,0,0,1,.812-8.5,11.055,11.055,0,0,1,2.162-4.734,14.382,14.382,0,0,1,1.768-1.616c.245-.206.36-.357.242-.7a7.584,7.584,0,0,1-.315-1.427,1.444,1.444,0,0,1,1.036-1.826,8.019,8.019,0,0,0,4.255-4.4c.372-.839.606-1.66-.154-2.424a.6.6,0,0,1-.075-.144,14.855,14.855,0,0,1-1.735-7.05.746.746,0,0,0-.163-.506,7.574,7.574,0,0,0-3.378-1.858,6.8,6.8,0,0,0-4.929.686,8.788,8.788,0,0,0-4.227,9.682,8.084,8.084,0,0,0,4.945,6.1,1.357,1.357,0,0,1,.864,1.31,3.2,3.2,0,0,1-.054.568,6.083,6.083,0,0,1-.792,2.42,3.83,3.83,0,0,1-2.251,1.347c-1.666.615-3.354,1.178-4.987,1.871a6.141,6.141,0,0,0-3.841,4.707,39.639,39.639,0,0,0-.608,7.015,1.009,1.009,0,0,0,.046.209Zm28.938-22.774c-.87.574-1.706,1.123-2.538,1.679a.291.291,0,0,0-.122.181,1.279,1.279,0,0,0,.777,1.142q2.49.819,4.976,1.652c.331.112.651.26.976.391A11.792,11.792,0,0,1,1447.436,1360.421Zm-20.3,4.969c.1-.031.2-.059.3-.095.914-.336,1.823-.689,2.745-1.005s1.835-.575,2.747-.882a1.063,1.063,0,0,0,.585-.365c.349-.661.283-.811-.349-1.19l-.033-.023-2.068-1.429A12.067,12.067,0,0,1,1427.133,1365.39Z"/></g></svg>