<svg xmlns="http://www.w3.org/2000/svg" width="50" height="43.762" viewBox="0 0 50 43.762"><defs><style>.a{opacity:0.5;}.b{fill:#fff;}</style></defs><g class="a" transform="translate(-452.801 -4059.513)"><path class="b" d="M502.8,4094.29a1.6,1.6,0,0,1-1.494.681c-5.371-.02-10.742-.012-16.112-.012h-.709l1.235,6.2c.182.01.326.011.469.027a1.035,1.035,0,0,1,.984,1.116,1.021,1.021,0,0,1-1.074.971c-1.92.007-3.84,0-5.761,0q-5.4,0-10.79,0a1.022,1.022,0,0,1-.969-1.565,1.822,1.822,0,0,1,.736-.492,1.794,1.794,0,0,1,.561-.062l1.236-6.193H454.194c-1.067,0-1.393-.329-1.393-1.4v-32.664c0-1.061.307-1.369,1.358-1.369q23.631,0,47.262-.011a1.437,1.437,0,0,1,1.38.694Zm-47.88-32.645v27h2.049v-8.279H477.8v8.277h22.878v-26.995Zm4.154,20.831v6.167H475.66v-6.167Zm24.5,18.673c-.4-2.006-.788-3.975-1.2-5.939-.022-.1-.246-.236-.377-.237-2.8-.013-5.592,0-8.388-.015-.293,0-.376.1-.427.381-.2,1.084-.434,2.162-.65,3.243-.17.849-.33,1.7-.5,2.567Zm-28.648-8.333H477.3c-.75-.778-.743-1.236.02-2.018h-22.4Zm45.749-2.017h-22.3c.157.321.447.652.449.984a2.913,2.913,0,0,1-.415,1.03h22.268Z"/><path class="b" d="M456.981,4063.7h41.628v14.532H456.981Zm2.08,12.446h37.456v-10.336H459.061Z"/><path class="b" d="M488.2,4085.56h-6.783c-.13,0-.26,0-.39,0a1.064,1.064,0,1,1,.012-2.118c2.163-.008,4.326,0,6.49,0q3.879,0,7.758,0c.712,0,1.187.342,1.259.9a1.067,1.067,0,0,1-1.173,1.224c-2.147.009-4.294,0-6.441,0H488.2Z"/></g></svg>