<svg xmlns="http://www.w3.org/2000/svg" width="59.105" height="60.212" viewBox="0 0 59.105 60.212"><defs><style>.a{fill:#10a1bb;stroke:#10a1bb;stroke-miterlimit:10;}</style></defs><g transform="translate(-1681.348 -1333.434)"><path class="a" d="M1717.284,1361.7a16.345,16.345,0,1,1-8.481,22.031,9.982,9.982,0,0,1-4.763,1.615,10.38,10.38,0,0,1-5.073-.944c-.019.319-.044.548-.045.777,0,1.726.005,3.453-.005,5.18-.005.894-.206,1.089-1.092,1.1-.912.009-1.825.015-2.738.006-.749-.007-1.049-.279-1.054-1.014-.013-2-.043-4,.025-5.993a14.593,14.593,0,0,1,.466-2.072,1.955,1.955,0,0,0,0-1.076,18.943,18.943,0,0,1-.744-13.983,9.7,9.7,0,0,1,4.308-5.636c3.746-2.205,5.884-5.576,7.338-9.512a38.679,38.679,0,0,0,2.141-10.015c.042-.472.119-1,.646-1a1.486,1.486,0,0,1,1.049.589,45.863,45.863,0,0,1,7.872,19.176C1717.168,1361.163,1717.225,1361.4,1717.284,1361.7Zm6.37,29.737a14.647,14.647,0,1,0-14.689-14.663A14.619,14.619,0,0,0,1723.654,1391.434Zm-27.653-10.9a21.071,21.071,0,0,0,8.06-8.085,23.674,23.674,0,0,0,2.714-8.236c.077-.545.33-.98.951-.894.655.09.771.572.686,1.165a25.366,25.366,0,0,1-2.916,8.787,22.277,22.277,0,0,1-7.968,8.273,3.062,3.062,0,0,0-1.732,2.35c-.1,1.936-.029,3.882-.029,5.862h1.5c0-1.674.079-3.3-.022-4.921a1.828,1.828,0,0,1,2.737-1.85,7.983,7.983,0,0,0,7.654-.483.737.737,0,0,0,.4-1,16.155,16.155,0,0,1,6.846-18.44,1.337,1.337,0,0,0,.686-1.552,44.355,44.355,0,0,0-6.183-16.58,1.363,1.363,0,0,0-.215-.264c-.717,2.66-1.3,5.39-2.195,8.013-1.461,4.273-3.813,7.929-7.854,10.3a8.068,8.068,0,0,0-3.711,4.723,23.1,23.1,0,0,0-.759,3.077A16.925,16.925,0,0,0,1696,1380.538Z"/><path class="a" d="M1690.493,1339.019a37.758,37.758,0,0,0-1.117,9.893,18.124,18.124,0,0,0,2.67,9.629,16.837,16.837,0,0,0,1.214,1.583c.384.46.533.929.03,1.355-.485.412-.918.153-1.28-.253a16.425,16.425,0,0,1-3.79-7.822,32.251,32.251,0,0,1,.077-11.982,1.745,1.745,0,0,0-.024-.915c-.6,1.308-1.245,2.6-1.8,3.927a34.635,34.635,0,0,0-2.981,14.069,22.03,22.03,0,0,0,6.543,15.467c.405.412.579.845.153,1.286-.456.471-.917.3-1.342-.133a23.493,23.493,0,0,1-6.7-13.145c-.934-6.135.317-11.96,2.573-17.629a50.155,50.155,0,0,1,4.923-9.333,1.8,1.8,0,0,1,.341-.479c.333-.241.7-.6,1.056-.6.567,0,.638.56.7,1.048.2,1.539.341,3.09.642,4.609.817,4.121,2.067,8.1,4.789,11.4a27.762,27.762,0,0,0,3.4,3.031c.2.175.458.29.679.447a.807.807,0,0,1,.309,1.2c-.318.475-.748.458-1.228.183a16.092,16.092,0,0,1-5.8-5.68,31.445,31.445,0,0,1-3.787-10.275c-.034-.169-.068-.338-.108-.506C1690.615,1339.322,1690.582,1339.256,1690.493,1339.019Z"/><path class="a" d="M1732.68,1374.458c.574.36,1.07.679,1.574.984a.842.842,0,0,1,.385,1.249c-.313.525-.8.489-1.293.217a.816.816,0,0,1-.188-.117c-1.683-1.719-3.339-.483-4.99.069-.136.046-.238.343-.266.536-.11.781-.163,1.57-.278,2.35-.192,1.3.7,2.211,1.187,3.258.072.153.426.2.659.246.578.119,1.165.2,1.744.317a.791.791,0,0,1,.689.969.773.773,0,0,1-.963.687c-.634-.078-1.263-.189-1.978-.3-.146.574-.3,1.135-.43,1.7s-.4.974-1.055.855c-.562-.1-.76-.544-.614-1.277a.6.6,0,0,1,.027-.145c.738-1.519.233-2.861-.62-4.132a.979.979,0,0,0-.666-.4q-2.145-.055-4.293,0c-.234.005-.477.23-.689.39-.109.082-.144.257-.237.37a3.49,3.49,0,0,0-.555,3.463,2.389,2.389,0,0,1,.082.585c.028.523-.23.941-.734.9a1.245,1.245,0,0,1-.9-.643,11.6,11.6,0,0,1-.415-1.984c-.653.059-1.263.115-1.872.169-.577.052-1-.166-1.042-.772a.823.823,0,0,1,.847-.921,1.641,1.641,0,0,1,.365-.052c2.058.306,2.693-1.236,3.319-2.661a3.974,3.974,0,0,0-.032-1.666c-.114-1.864-.16-1.776-1.814-2.569a2.909,2.909,0,0,0-3.4.225,1.1,1.1,0,0,1-.193.109c-.7.363-1.228.294-1.478-.193s-.034-.941.676-1.338c.449-.251.9-.493,1.419-.774-.245-.568-.455-1.113-.71-1.636-.274-.561-.214-1.039.359-1.31a.768.768,0,0,1,1.157.555c.486,2.218,2.357,2.671,4.1,3.3a.9.9,0,0,0,.546-.076,3.049,3.049,0,0,0,.509-.3c2.3-1.393,2.161-1.4,2.2-4.1.02-1.448-.851-2.067-1.655-2.9a1.594,1.594,0,0,1-.366-1.029c0-.182.373-.488.6-.514a1.353,1.353,0,0,1,.848.3c.471.349.89.767,1.376,1.2l1.318-1.22c.439-.4.916-.537,1.362-.059.429.46.244.905-.157,1.294a1.729,1.729,0,0,1-.271.251c-1.3.8-1.371,2.023-1.447,3.422a2.993,2.993,0,0,0,1.865,3.21,2.918,2.918,0,0,0,2.516.284c1.454-.465,2.65-1.085,3.107-2.654a1.24,1.24,0,0,1,.18-.322.853.853,0,0,1,1.5.819C1733.327,1373.261,1733.013,1373.817,1732.68,1374.458Zm-11.421,5.242h4.723c.093-.966.2-1.871.249-2.779a.87.87,0,0,0-.332-.638c-2.132-1.5-2.137-1.493-4.332-.148-.1.064-.242.1-.311.192a.883.883,0,0,0-.237.482C1721.077,1377.763,1721.173,1378.715,1721.259,1379.7Z"/></g></svg>