<svg xmlns="http://www.w3.org/2000/svg" width="50" height="50" viewBox="0 0 50 50"><defs><style>.a{opacity:0.5;}.b{fill:#fff;}</style></defs><g class="a" transform="translate(-452.801 -4221.21)"><path class="b" d="M452.821,4248.055c.272-.03.409-.253.577-.421q4.347-4.344,8.683-8.7a2.517,2.517,0,0,1,1.155-.676c3.039-.84,6.067-1.723,9.114-2.532a4.559,4.559,0,0,0,2.19-1.327,49.164,49.164,0,0,1,17.213-11.607,23.85,23.85,0,0,1,4.875-1.363c.185-.032.4-.008.512-.222h2.733c.1.215.314.215.493.26a2.812,2.812,0,0,1,2.179,2.172c.046.179.046.4.256.5v2.831c-.179.081-.185.253-.212.411a31.426,31.426,0,0,1-3.487,9.477,52.675,52.675,0,0,1-8.821,12.033,3.328,3.328,0,0,1-.455.44,4.334,4.334,0,0,0-1.664,2.694c-.76,2.908-1.619,5.79-2.421,8.688a2.773,2.773,0,0,1-.747,1.279q-4.307,4.28-8.589,8.584c-.179.179-.42.322-.448.614h-.976c-.07-.332-.272-.61-.324-.96-.465-3.1-.952-6.2-1.434-9.3-.085-.546-.143-.572-.662-.364-.936.374-1.879.73-2.81,1.115a1.038,1.038,0,0,1-1.274-.272c-.63-.658-1.278-1.3-1.932-1.931-.176-.171-.325-.512-.673-.228-.332.27-.09.486.061.706a7.221,7.221,0,0,1,.811,1.553,4.352,4.352,0,0,1-1.426,5.239,13.757,13.757,0,0,1-3.158,1.825,43.668,43.668,0,0,1-7.231,2.33c-.229.056-.5.036-.643.286h-1.074a.6.6,0,0,0-.391-.39v-1.074c.247-.119.241-.37.3-.582a57.507,57.507,0,0,1,1.737-5.639,17.667,17.667,0,0,1,2.548-4.972,4.033,4.033,0,0,1,3.354-1.6,5.988,5.988,0,0,1,3.235,1.1c.238.157.486.482.78.082.275-.377-.123-.52-.3-.7q-.908-.956-1.86-1.866a1.029,1.029,0,0,1-.271-1.272c.395-.945.753-1.906,1.131-2.858.206-.518.193-.565-.374-.653-2.49-.387-4.985-.743-7.471-1.157a6.4,6.4,0,0,1-2.81-.675Zm33.579,4.293a1.935,1.935,0,0,0-.208.126,59.758,59.758,0,0,1-11.23,7.011.5.5,0,0,0-.3.626c.42,2.682.827,5.365,1.245,8.046.023.15-.015.375.162.428s.271-.147.381-.257q3.677-3.671,7.35-7.343a1.9,1.9,0,0,0,.5-.872c.465-1.676.958-3.344,1.41-5.023a17.5,17.5,0,0,0,.7-2.734Zm-16.779,7.708c.1-.031.272-.077.439-.139,1.342-.5,2.649-1.081,3.945-1.686a54.869,54.869,0,0,0,14.174-9.493,48.11,48.11,0,0,0,10.089-13.611c.323-.635.315-.64-.346-.979a18.091,18.091,0,0,1-8.067-8.076c-.324-.634-.339-.646-.992-.317a48.442,48.442,0,0,0-11.989,8.473,52.972,52.972,0,0,0-9.383,12.471,58.513,58.513,0,0,0-3.414,7.338.8.8,0,0,0,.218,1c.432.394.831.824,1.246,1.238.548.547.549.548,1.1-.006l12.664-12.663c.576-.575,1-.658,1.38-.277s.3.8-.282,1.378q-3.328,3.33-6.659,6.659-3.07,3.073-6.147,6.137c-.315.312-.334.532,0,.837.514.474.995.983,1.492,1.475A.643.643,0,0,0,469.621,4260.056Zm-5.768-10.736c.535.01.563-.006.809-.512a59.943,59.943,0,0,1,6.739-10.775c.1-.122.3-.247.206-.4s-.3-.025-.444.015q-3.666,1.019-7.328,2.05a1.741,1.741,0,0,0-.792.455q-3.714,3.738-7.433,7.47c-.087.088-.236.161-.188.313s.217.119.337.138c1.462.228,2.924.45,4.386.675C461.43,4248.943,462.715,4249.144,463.853,4249.32Zm-3.162,9.076a2.487,2.487,0,0,0-1.753.756,7.016,7.016,0,0,0-1.418,2.026,40.093,40.093,0,0,0-2.726,7.654c-.125.45-.041.528.428.41a38.547,38.547,0,0,0,6.294-2.051,12.107,12.107,0,0,0,2.971-1.751c1.652-1.391,1.282-3.147.279-4.515-.183-.249-.351-.237-.554-.027a9.341,9.341,0,0,1-.7.678.738.738,0,0,1-1.057.008.754.754,0,0,1-.016-1.094,9.744,9.744,0,0,1,.679-.7c.22-.211.2-.382-.044-.553A3.917,3.917,0,0,0,460.691,4258.4Zm37.793-35.679a22.375,22.375,0,0,0-7.18,1.92c-.33.133-.273.345-.153.59a16.19,16.19,0,0,0,7.607,7.623c.341.168.523.115.668-.248a29.049,29.049,0,0,0,1.576-4.814,8.868,8.868,0,0,0,.231-3.241,1.868,1.868,0,0,0-1.782-1.76C499.1,4222.741,498.738,4222.735,498.484,4222.717Z"/><path class="b" d="M452.821,4270.8a.6.6,0,0,1,.391.39Q452.711,4271.3,452.821,4270.8Z"/><path class="b" d="M486.4,4252.348l.009.008Z"/><path class="b" d="M490.3,4238.383a4.683,4.683,0,1,1-4.715-4.675A4.871,4.871,0,0,1,490.3,4238.383Zm-1.561.018a3.122,3.122,0,1,0-3.084,3.112A2.969,2.969,0,0,0,488.743,4238.4Z"/></g></svg>