<svg xmlns="http://www.w3.org/2000/svg" width="32.254" height="45.382" viewBox="0 0 32.254 45.382"><defs><style>.a{fill:#fff;}</style></defs><g transform="translate(-136.017 -4796.558)"><path class="a" d="M152.148,4841.94c-1.286-1.567-2.517-3.006-3.682-4.5a88.186,88.186,0,0,1-8.9-13.528,30.841,30.841,0,0,1-3.311-8.847,14.834,14.834,0,0,1,1.381-9.407,15.592,15.592,0,0,1,12.341-8.942,16.048,16.048,0,0,1,17.59,11.165,16.231,16.231,0,0,1-.441,10.669,54.061,54.061,0,0,1-4.988,9.918,113.3,113.3,0,0,1-8.711,12.06c-.115.14-.239.274-.361.408C152.795,4841.238,152.521,4841.534,152.148,4841.94Zm-.1-4,.271.047c2.259-3.165,4.577-6.291,6.763-9.507a49.381,49.381,0,0,0,5.6-10.542,14.217,14.217,0,0,0,.924-7.4,13.133,13.133,0,0,0-5.008-8.555,13.489,13.489,0,0,0-16.857-.033,13.1,13.1,0,0,0-5.2,9.973,16.64,16.64,0,0,0,1.739,7.707,66.662,66.662,0,0,0,7.346,12.413C149.072,4834.033,150.579,4835.975,152.053,4837.94Z"/><path class="a" d="M158.353,4812.648a6.2,6.2,0,1,1-6.183-6.2A6.136,6.136,0,0,1,158.353,4812.648Zm-9.894.032a3.7,3.7,0,1,0,7.4-.036,3.7,3.7,0,1,0-7.4.036Z"/></g></svg>