<svg xmlns="http://www.w3.org/2000/svg" width="45.382" height="28.886" viewBox="0 0 45.382 28.886"><defs><style>.a{fill:#fff;}</style></defs><path class="a" d="M152.151,4925.9q8.082,0,16.164,0a8.2,8.2,0,0,1,1.691.143,6.151,6.151,0,0,1,4.712,4.852,7.328,7.328,0,0,1,.112,1.237q.011,8.234,0,16.467a6.123,6.123,0,0,1-4.754,6.019,6.386,6.386,0,0,1-1.383.156c-1.813.017-3.626.007-5.439.007q-13.824,0-27.648-.008a5.939,5.939,0,0,1-5.44-3.27,5.617,5.617,0,0,1-.708-2.735c-.008-.82-.006-1.64-.006-2.461q0-7.034,0-14.067a6.189,6.189,0,0,1,.764-3.148,6.067,6.067,0,0,1,4.708-3.152,8.367,8.367,0,0,1,1.062-.04Q144.069,4925.893,152.151,4925.9Zm-3.918,15.3c-4.927,3.649-9.836,7.282-14.774,10.942.165.09.276.158.394.214a4.274,4.274,0,0,0,1.855.388q16.424-.005,32.847,0h.243a3.967,3.967,0,0,0,1.8-.469,2.239,2.239,0,0,0,.207-.147q-7.4-5.479-14.747-10.92c-.1.071-.184.127-.264.187-.424.312-.86.609-1.269.941a4.005,4.005,0,0,1-4.778,0C149.27,4941.939,148.761,4941.589,148.233,4941.2Zm21.922-12.982c-.155-.056-.245-.094-.338-.122a4.629,4.629,0,0,0-1.351-.166q-16.317,0-32.635,0a5.709,5.709,0,0,0-.817.051,2,2,0,0,0-.855.254c.113.085.2.152.287.217q3.037,2.251,6.078,4.5,5.225,3.869,10.451,7.733a1.876,1.876,0,0,0,.554.3,1.9,1.9,0,0,0,1.781-.292q8.2-6.079,16.4-12.15C169.843,4928.451,169.971,4928.354,170.155,4928.216ZM157.8,4939.9c.02.04.025.064.039.075q7.124,5.28,14.248,10.559a1.408,1.408,0,0,0,.13.077.045.045,0,0,0,.029,0,.187.187,0,0,0,.039-.015c.024-.043.054-.1.081-.149a4.31,4.31,0,0,0,.429-1.967q-.006-8.14-.005-16.282a5.394,5.394,0,0,0-.07-.906,3.885,3.885,0,0,0-.838-1.823Zm-25.767,10.751,14.483-10.724-14.1-10.443a1.033,1.033,0,0,0-.09.08c-.038.047-.074.1-.108.147a3.923,3.923,0,0,0-.72,2.248q0,8.369,0,16.736a4.055,4.055,0,0,0,.074.753A3.3,3.3,0,0,0,132.038,4950.654Z" transform="translate(-129.453 -4925.895)"/></svg>